<?xml version="1.0" encoding="utf-8"?>
<!-- Generator: Adobe Illustrator 16.0.0, SVG Export Plug-In . SVG Version: 6.00 Build 0)  -->
<!DOCTYPE svg PUBLIC "-//W3C//DTD SVG 1.1//EN" "http://www.w3.org/Graphics/SVG/1.1/DTD/svg11.dtd">
<svg version="1.1" id="图层_1" xmlns="http://www.w3.org/2000/svg" xmlns:xlink="http://www.w3.org/1999/xlink" x="0px" y="0px"
	 width="42.344px" height="42.334px" viewBox="269.079 6.754 42.344 42.334" enable-background="new 269.079 6.754 42.344 42.334"
	 xml:space="preserve">
<path d="M290.244,6.759c5.184,0,10.369,0.004,15.552-0.004c0.88-0.002,1.741,0.08,2.536,0.477c1.912,0.956,2.962,2.504,3.064,4.644
	c0.052,1.053,0.012,2.11,0.012,3.166c0,9.406,0.002,18.812-0.003,28.217c0,0.495,0.001,1.001-0.092,1.482
	c-0.492,2.556-2.591,4.331-5.198,4.335c-10.586,0.016-21.171,0.018-31.757-0.002c-2.97-0.004-5.26-2.296-5.266-5.264
	c-0.019-10.584-0.017-21.171-0.001-31.755c0.004-3.038,2.258-5.274,5.321-5.288C279.69,6.742,284.967,6.76,290.244,6.759z
	 M290.312,9.396c-5.092,0-10.184-0.001-15.275,0.001c-0.311,0-0.623-0.012-0.931,0.016c-1.252,0.115-2.249,1.108-2.371,2.362
	c-0.03,0.308-0.017,0.62-0.017,0.931c0,10.121,0,20.242,0,30.365c0,0.247-0.006,0.496,0.004,0.744c0.062,1.388,0.965,2.4,2.334,2.6
	c0.305,0.044,0.62,0.034,0.93,0.034c10.184,0.001,20.366,0.001,30.551,0.001c0.154,0,0.311,0.004,0.465-0.002
	c1.662-0.064,2.715-1.117,2.771-2.768c0.008-0.219,0.003-0.436,0.003-0.652c0-10.092,0-20.181,0-30.271
	c0-0.28,0.012-0.561-0.011-0.838c-0.121-1.452-1.17-2.458-2.621-2.518c-0.279-0.012-0.559-0.004-0.838-0.004
	C300.309,9.396,295.311,9.396,290.312,9.396z"/>
<path d="M287.927,33.858c0.236-0.39,0.417-0.673,0.584-0.963c2.532-4.378,5.061-8.759,7.592-13.137
	c0.14-0.241,0.269-0.496,0.445-0.707c0.445-0.529,1.11-0.632,1.677-0.291c0.556,0.334,0.778,0.986,0.535,1.615
	c-0.078,0.201-0.188,0.389-0.297,0.578c-2.99,5.188-5.98,10.376-8.974,15.562c-0.537,0.93-1.36,1.095-2.158,0.373
	c-1.98-1.789-3.939-3.604-5.89-5.427c-0.642-0.601-0.683-1.327-0.184-1.901c0.508-0.584,1.315-0.608,1.979-0.01
	c1.292,1.163,2.561,2.351,3.84,3.529C287.327,33.311,287.579,33.539,287.927,33.858z"/>
</svg>
