<svg xmlns="http://www.w3.org/2000/svg" xmlns:xlink="http://www.w3.org/1999/xlink" version="1.1" x="0px" y="0px" viewBox="0 0 90 90" enable-background="new 0 0 90 90" xml:space="preserve"><g><polygon points="18.2,13.6 62,13.6 62,20.2 67.7,20.2 67.7,7.9 12.5,7.9 12.5,81.1 34.4,81.1 34.4,75.4 18.2,75.4  "></polygon><path d="M69.2,55.8c5-2.8,8.3-8.2,8.3-14.3c0-9.1-7.4-16.4-16.4-16.4s-16.4,7.4-16.4,16.4c0,6.1,3.3,11.4,8.2,14.2   c-6.5,4.3-12.7,13.4-12.7,25.7c3.5,2.8,8.5,5.4,20.8,5.4s17.3-2.6,20.8-5.4C81.8,69.2,75.7,60.2,69.2,55.8z"></path><rect x="24.9" y="24.1" width="14.3" height="5"></rect><rect x="24.9" y="34" width="14.3" height="5"></rect><rect x="24.9" y="44" width="14.3" height="5"></rect></g></svg>