<?xml version="1.0" encoding="utf-8"?>
<!-- Generator: Adobe Illustrator 16.0.0, SVG Export Plug-In . SVG Version: 6.00 Build 0)  -->
<!DOCTYPE svg PUBLIC "-//W3C//DTD SVG 1.1//EN" "http://www.w3.org/Graphics/SVG/1.1/DTD/svg11.dtd">
<svg version="1.1" id="图层_1" xmlns="http://www.w3.org/2000/svg" xmlns:xlink="http://www.w3.org/1999/xlink" x="0px" y="0px"
	 width="53.51px" height="53.509px" viewBox="263.449 0.733 53.51 53.509" enable-background="new 263.449 0.733 53.51 53.509"
	 xml:space="preserve">
<g>
	<path d="M290.207,0.733c-2.244,0-4.062,1.82-4.062,4.063v7.728c0,2.246,1.818,4.063,4.062,4.063s4.062-1.821,4.062-4.063V4.797
		C294.27,2.554,292.451,0.733,290.207,0.733z M291.1,12.525c0,0.493-0.4,0.892-0.893,0.892c-0.492,0-0.89-0.399-0.89-0.892V4.797
		c0-0.493,0.398-0.893,0.89-0.893c0.492,0,0.893,0.4,0.893,0.893V12.525z"/>
	<path d="M290.207,38.387c-2.244,0-4.062,1.822-4.062,4.063v7.729c0,2.243,1.818,4.062,4.062,4.062s4.062-1.82,4.062-4.062V42.45
		C294.27,40.209,292.451,38.387,290.207,38.387z M291.1,50.181c0,0.491-0.4,0.89-0.893,0.89c-0.492,0-0.89-0.396-0.89-0.89v-7.729
		c0-0.492,0.398-0.891,0.89-0.891c0.492,0,0.893,0.396,0.893,0.891V50.181z"/>
	<path d="M277.035,8.57c-0.793-0.792-1.832-1.189-2.87-1.189c-1.038,0-2.078,0.396-2.87,1.189c-1.589,1.589-1.589,4.162-0.003,5.748
		l5.469,5.466c0.793,0.793,1.833,1.189,2.87,1.189c1.041,0,2.081-0.396,2.877-1.189c1.586-1.586,1.586-4.159-0.003-5.745
		L277.035,8.57z M280.264,17.536c-0.219,0.22-0.467,0.263-0.637,0.263c-0.167,0-0.412-0.044-0.629-0.263l-5.468-5.461
		c-0.346-0.348-0.344-0.914,0.003-1.261c0.213-0.214,0.461-0.263,0.63-0.263c0.168,0,0.412,0.047,0.627,0.261l5.468,5.468
		C280.608,16.625,280.608,17.195,280.264,17.536z"/>
	<path d="M303.658,35.198c-0.793-0.793-1.833-1.189-2.87-1.189c-1.04,0-2.077,0.396-2.87,1.189
		c-1.592,1.589-1.589,4.159-0.003,5.745l5.469,5.469c0.793,0.793,1.835,1.188,2.87,1.188c1.04,0,2.077-0.395,2.873-1.188
		c1.586-1.586,1.586-4.164,0-5.747L303.658,35.198z M306.887,44.166c-0.215,0.213-0.463,0.264-0.633,0.264s-0.415-0.047-0.63-0.264
		l-5.468-5.469c-0.213-0.212-0.26-0.461-0.26-0.629c0-0.17,0.047-0.415,0.264-0.633c0.215-0.215,0.463-0.261,0.628-0.261
		s0.413,0.043,0.628,0.263l5.471,5.463C307.233,43.252,307.233,43.818,306.887,44.166z"/>
	<path d="M275.248,31.551c2.246,0,4.057-1.814,4.06-4.062c-0.002-2.245-1.814-4.063-4.062-4.063h-7.732
		c-2.242,0-4.06,1.82-4.063,4.063c0,2.244,1.82,4.062,4.063,4.062H275.248L275.248,31.551z M266.624,27.494
		c0-0.495,0.405-0.898,0.891-0.898h7.733c0.489,0,0.891,0.399,0.891,0.882c0,0.495-0.402,0.897-0.891,0.897h-7.733
		C267.023,28.383,266.624,27.98,266.624,27.494z"/>
	<path d="M312.899,23.428h-7.731c-2.242,0-4.064,1.818-4.061,4.06c-0.004,2.248,1.818,4.062,4.061,4.062h7.731h0.003
		c2.245,0,4.057-1.818,4.057-4.059C316.962,25.246,315.147,23.428,312.899,23.428z M312.899,28.38h-7.731
		c-0.307,0-0.513-0.143-0.631-0.261c-0.119-0.121-0.256-0.321-0.256-0.635c0-0.304,0.14-0.504,0.256-0.623
		c0.119-0.121,0.33-0.262,0.633-0.262h7.73c0.49,0,0.887,0.399,0.887,0.892C313.787,27.98,313.391,28.38,312.899,28.38z"/>
	<path d="M279.629,34.006c-1.041,0-2.077,0.396-2.874,1.191l-5.468,5.467c-1.583,1.584-1.586,4.157,0.003,5.746
		c0.795,0.793,1.833,1.188,2.873,1.188c1.039,0,2.076-0.396,2.867-1.188l5.469-5.469c1.588-1.586,1.588-4.154,0.002-5.748
		C281.708,34.402,280.669,34.006,279.629,34.006z M280.258,38.699l-5.468,5.471c-0.212,0.213-0.463,0.26-0.627,0.26
		c-0.167,0-0.417-0.051-0.63-0.26c-0.347-0.352-0.347-0.92-0.003-1.266l5.468-5.467c0.217-0.217,0.465-0.263,0.632-0.263
		c0.17,0,0.419,0.046,0.629,0.257C280.604,37.781,280.608,38.352,280.258,38.699z"/>
	<path d="M300.788,20.973c1.04,0,2.077-0.396,2.87-1.189l5.469-5.466c1.586-1.586,1.586-4.158,0-5.748
		c-0.796-0.792-1.836-1.192-2.876-1.192c-1.034,0-2.071,0.396-2.868,1.189l-5.465,5.468c-1.586,1.587-1.59,4.157,0,5.741
		C298.711,20.573,299.748,20.973,300.788,20.973z M300.16,16.281l5.464-5.468c0.214-0.216,0.462-0.263,0.627-0.263
		c0.173,0,0.421,0.049,0.636,0.263c0.347,0.35,0.347,0.917,0,1.261l-5.472,5.464c-0.214,0.216-0.462,0.263-0.628,0.263
		c-0.164,0-0.408-0.047-0.631-0.267c-0.211-0.211-0.256-0.455-0.256-0.619C299.9,16.743,299.943,16.495,300.16,16.281z"/>
</g>
</svg>
