<?xml version="1.0" encoding="utf-8"?>
<!-- Generator: Adobe Illustrator 16.0.0, SVG Export Plug-In . SVG Version: 6.00 Build 0)  -->
<!DOCTYPE svg PUBLIC "-//W3C//DTD SVG 1.1//EN" "http://www.w3.org/Graphics/SVG/1.1/DTD/svg11.dtd">
<svg version="1.1" id="图层_1" xmlns="http://www.w3.org/2000/svg" xmlns:xlink="http://www.w3.org/1999/xlink" x="0px" y="0px"
	 width="56px" height="55.999px" viewBox="262.434 -2.001 56 55.999" enable-background="new 262.434 -2.001 56 55.999"
	 xml:space="preserve">
<g>
	<path d="M295.294,37.351c-3.752,0-5.457-3.215-5.604-3.494c-0.148-0.277-0.224-2.036,0.271-2.481
		c2.915-2.916,4.22-6.131,4.346-7.607c0.3-3.489,0.227-5.037,0-7.308c-0.408-4.125-5.219-7.398-9.955-7.409l0,0
		c-0.003,0-0.009,0-0.011,0c-0.003,0-0.006,0-0.011,0l0,0c-4.735,0.011-9.545,3.285-9.954,7.406c-0.224,2.273-0.3,3.819,0,7.308
		c0.129,1.476,1.434,4.692,4.346,7.606c0.496,0.445,0.42,2.207,0.271,2.48c-0.146,0.28-1.851,3.495-5.603,3.495
		c-3.754,0-8.691,0.198-8.691,4.25c0,4.046,5.426,5.676,19.633,5.679c0.003,0,0.006,0,0.011,0c0.006,0,0.009,0,0.011,0
		c14.206,0,19.635-1.633,19.635-5.679C303.987,37.549,299.048,37.351,295.294,37.351z"/>
	<path d="M308.823,31.669c-3.173,0-4.611-2.719-4.734-2.954c-0.127-0.236-0.188-1.724,0.229-2.102
		c2.461-2.461,3.562-5.177,3.672-6.426c0.252-2.948,0.189-4.256,0-6.177c-0.346-3.48-4.41-6.247-8.409-6.255V7.752
		c-0.003,0-0.005,0-0.009,0c-0.002,0-0.005,0-0.011,0v0.002c-2.013,0.003-4.043,0.708-5.608,1.851
		c2.162,2.007,3.641,6.051,3.641,10.721c0,6.149-2.56,11.216-5.869,11.963c0.277-0.008,0.551-0.03,0.828-0.03
		c6.787,0,12.539,3.153,14.592,7.529c6.417-0.544,9.023-1.96,9.023-4.536C316.167,31.834,311.995,31.669,308.823,31.669z"/>
</g>
</svg>
